<svg xmlns="http://www.w3.org/2000/svg" width="48" height="48" viewBox="0 0 48 48">
  <g>
    <path fill="#4285F4" d="M24 9.5c3.54 0 6.7 1.22 9.19 3.22l6.85-6.85C36.36 2.34 30.59 0 24 0 14.61 0 6.13 5.48 1.82 13.44l7.98 6.21C12.13 13.16 17.62 9.5 24 9.5z"/>
    <path fill="#34A853" d="M46.09 24.56c0-1.64-.15-3.22-.44-4.76H24v9.04h12.44c-.54 2.92-2.18 5.39-4.64 7.06l7.19 5.59C43.98 37.13 46.09 31.36 46.09 24.56z"/>
    <path fill="#FBBC05" d="M8.8 28.65c-1.04-3.12-1.04-6.48 0-9.6l-7.98-6.21C-1.13 17.61-1.13 30.39 8.8 39.35l7.98-6.21c-2.02-1.6-3.6-3.97-3.98-6.49z"/>
    <path fill="#EA4335" d="M24 46c6.59 0 12.36-2.17 16.44-5.94l-7.19-5.59c-2.01 1.35-4.59 2.13-7.25 2.13-6.38 0-11.87-3.66-14.2-8.64l-7.98 6.21C6.13 42.52 14.61 48 24 48z"/>
    <path fill="none" d="M0 0h48v48H0z"/>
  </g>
</svg>
